<?xml version="1.0" encoding="UTF-8" standalone="no"?>
<!DOCTYPE svg PUBLIC "-//W3C//DTD SVG 1.1//EN" "http://www.w3.org/Graphics/SVG/1.1/DTD/svg11.dtd">
<svg width="100%" height="100%" viewBox="0 0 16 21" version="1.1" xmlns="http://www.w3.org/2000/svg" xmlns:xlink="http://www.w3.org/1999/xlink" xml:space="preserve" xmlns:serif="http://www.serif.com/" style="fill-rule:evenodd;clip-rule:evenodd;stroke-linejoin:round;stroke-miterlimit:1.41421;">
    <path d="M4.398,12.737C4.348,12.738 3.649,13.042 3.408,13.091C3.337,13.091 2.812,13.308 2.795,13.256L2.795,13.232C2.795,13.163 2.903,13.104 2.942,13.07C3.264,12.788 3.6,12.521 3.903,12.218C4.044,12.101 4.256,11.936 4.327,11.865C4.423,11.817 4.436,11.692 4.386,11.61C4.237,11.366 3.984,11.121 3.785,10.922C3.738,10.851 3.667,10.757 3.643,10.71C3.626,10.692 3.605,10.661 3.583,10.627L3.539,10.557C3.517,10.523 3.496,10.492 3.478,10.474C3.42,10.435 3.243,10.073 3.219,10.05C3.163,10.019 2.881,9.022 2.889,8.965C2.889,8.965 2.818,8.541 2.795,8.399C2.771,8.14 2.771,8.022 2.818,7.433L2.818,7.174L2.842,7.174C2.889,7.174 2.983,7.315 2.983,7.315C3.139,7.808 3.204,8.086 3.478,8.47C3.727,8.719 4.041,9.185 4.297,9.428C4.467,9.588 4.652,9.732 4.846,9.861C5.252,10.105 5.829,10.165 6.26,10.309C6.26,10.309 7.934,10.403 8.028,10.356C8.17,10.309 8.924,10.026 8.947,10.002C8.947,10.002 9.513,9.672 9.56,9.625C9.601,9.287 9.844,8.156 9.938,8.258C10.046,8.135 10.19,8.077 10.385,8.117L10.503,8.234C10.598,8.329 10.645,8.376 10.692,8.376C10.739,8.352 10.833,8.187 10.928,7.975C10.951,7.881 10.998,7.81 10.998,7.81C10.998,7.787 11.022,7.716 11.046,7.645L11.07,7.555L11.14,7.362C11.211,7.197 11.211,7.103 11.234,6.749C11.258,6.514 11.258,6.042 11.258,5.712L11.234,5.123L11.305,5.123C11.454,5.123 11.486,5.304 11.564,5.382C11.694,5.555 11.635,5.582 11.753,5.759C11.794,5.883 11.817,6.111 11.847,6.231C11.941,6.49 12.012,6.844 12.036,7.197L12.076,7.456L12.106,7.669L12.138,7.676L12.177,7.645L12.224,7.503L12.271,7.268C12.271,7.079 12.288,6.891 12.295,6.702C12.298,6.607 12.289,6.511 12.301,6.416C12.305,6.383 12.312,6.34 12.342,6.325L12.366,6.301L12.436,6.325C12.547,6.38 12.578,6.985 12.578,7.126C12.625,7.409 12.672,8.729 12.625,8.8C12.625,8.847 12.601,8.871 12.601,8.918L12.578,8.965L12.578,8.824L12.531,8.989C12.507,9.059 12.484,9.225 12.46,9.319C12.46,9.367 12.449,9.426 12.435,9.466C12.432,9.48 12.427,9.494 12.413,9.507L12.389,9.555L12.389,9.531C12.389,9.531 12.389,9.507 12.413,9.507C12.42,9.5 12.428,9.485 12.435,9.466C12.436,9.456 12.436,9.446 12.436,9.437L12.436,9.39L12.389,9.46C12.331,9.576 12.387,9.746 12.295,9.837C12.295,9.885 12.271,9.932 12.271,9.932C12.271,9.955 12.248,9.979 12.224,10.026C12.215,10.035 12.153,10.163 12.153,10.191C12.119,10.226 12.042,10.385 12.036,10.403C11.988,10.45 11.941,10.521 11.941,10.521C11.941,10.545 11.894,10.615 11.871,10.663C11.814,10.719 11.742,10.825 11.706,10.898C11.658,10.945 11.611,10.993 11.611,10.993C11.611,11.016 11.446,11.205 11.234,11.417C11.154,11.488 11.057,11.541 10.989,11.622C10.832,11.807 11.112,12.002 11.211,12.101C11.322,12.156 11.706,12.454 11.706,12.454C11.706,12.454 12.17,12.777 12.295,12.902L12.696,13.279L12.649,13.303C12.625,13.326 12.413,13.256 12.413,13.256L12.319,13.209C12.319,13.209 11.611,12.949 11.423,12.902L11.211,12.808C11.116,12.761 10.999,12.737 10.951,12.737L10.857,12.737L10.833,12.761L10.833,12.808L10.951,12.878C11.258,13.091 11.8,13.515 11.8,13.515L11.918,13.586L12.177,13.798L12.342,13.939C12.391,13.979 12.445,14.02 12.507,14.034C12.534,14.04 12.413,14.246 12.413,14.222C12.389,14.222 12.295,14.199 12.295,14.199L12.083,14.104C11.896,14.03 11.697,13.982 11.517,13.892C11.376,13.845 11.352,13.821 11.258,13.798C11.187,13.774 11.116,13.751 11.046,13.727C10.993,13.701 10.739,13.633 10.739,13.633L10.55,13.562L10.409,13.515C10.409,13.515 10.024,13.421 9.985,13.421C9.938,13.374 9.608,13.279 9.395,13.256C9.325,13.232 8.855,13.161 8.855,13.161C8.831,13.161 8.335,13.091 7.792,13.091L6.79,13.127L6.543,13.161L6.119,13.232C6.119,13.232 5.741,13.303 5.647,13.326C5.569,13.352 5.469,13.339 5.411,13.397C5.339,13.397 5.199,13.444 5.199,13.444L5.011,13.491C5.011,13.491 4.704,13.562 4.704,13.586C4.704,13.586 4.333,13.654 4.263,13.701C4.168,13.749 3.833,13.88 3.667,13.963C3.567,13.963 3.265,14.073 3.265,14.073L3.195,14.104L3.103,14.126L3.007,14.175L2.877,14.037C2.877,14.037 3.129,13.876 3.23,13.79C3.395,13.625 3.586,13.485 3.586,13.485C3.586,13.485 3.785,13.35 4.068,13.091C4.167,12.971 4.468,12.808 4.468,12.761L4.468,12.737L4.398,12.737Z" style="fill:white;"/>
    <path d="M7.426,18.381C7.63,18.39 7.836,18.399 8.039,18.381C8.099,18.375 8.15,18.336 8.204,18.31C8.618,18.112 9.152,17.798 9.152,17.798L9.666,17.485C9.673,17.533 11.368,16.184 11.952,15.01C11.976,14.963 12.023,14.892 12.023,14.892L12.023,14.845L12.047,14.845C12.047,14.845 12.094,14.798 12.117,14.75C12.141,14.68 12.212,14.585 12.259,14.515C12.377,14.303 12.424,14.232 12.424,14.208C12.4,14.208 12.306,14.185 12.306,14.185L12.094,14.09C11.907,14.016 11.708,13.968 11.528,13.878C11.387,13.831 11.363,13.808 11.269,13.784C11.198,13.76 11.127,13.737 11.057,13.713C11.004,13.687 10.75,13.619 10.75,13.619L10.562,13.548L10.42,13.501C10.42,13.501 10.035,13.407 9.996,13.407C9.949,13.36 9.619,13.265 9.406,13.242C9.336,13.218 8.866,13.147 8.866,13.147C8.842,13.147 8.346,13.077 7.803,13.077L6.801,13.113L6.554,13.147L6.13,13.218C6.13,13.218 5.753,13.289 5.658,13.312C5.58,13.338 5.481,13.325 5.422,13.383C5.35,13.383 5.21,13.43 5.21,13.43L5.022,13.477C5.022,13.477 4.715,13.548 4.715,13.572C4.715,13.572 4.345,13.64 4.274,13.688C4.18,13.735 3.845,13.866 3.678,13.949C3.579,13.949 3.276,14.06 3.276,14.06L3.207,14.09L3.114,14.112C3.114,14.112 3.066,14.119 3.019,14.119L3.018,14.161L3.018,14.232C3.018,14.279 3.042,14.326 3.089,14.397C3.298,14.606 3.866,15.609 4.173,15.953C4.78,16.631 5.02,16.871 5.617,17.345C5.622,17.349 6.134,17.744 6.224,17.792C6.619,17.999 7.024,18.187 7.426,18.381M3.241,13.776C3.406,13.611 3.597,13.471 3.597,13.471C3.597,13.471 3.796,13.336 4.079,13.077C4.178,12.958 4.48,12.794 4.48,12.747L4.48,12.723L4.409,12.723C4.362,12.723 3.661,13.028 3.419,13.077C3.348,13.077 2.823,13.294 2.806,13.242L2.806,13.218C2.806,13.149 2.914,13.09 2.953,13.056C3.275,12.774 3.611,12.507 3.914,12.204C4.055,12.087 4.267,11.922 4.338,11.851C4.434,11.803 4.447,11.678 4.397,11.596C4.249,11.352 3.995,11.107 3.796,10.908C3.749,10.837 3.678,10.743 3.654,10.696C3.607,10.649 3.537,10.507 3.489,10.46C3.431,10.421 3.254,10.059 3.23,10.036C3.174,10.005 2.892,9.008 2.9,8.951C2.9,8.951 2.829,8.527 2.806,8.386C2.782,8.126 2.782,8.008 2.829,7.419L2.829,7.207L2.829,7.16L2.853,7.16C2.9,7.16 2.994,7.301 2.994,7.301C3.15,7.794 3.215,8.072 3.489,8.456C3.738,8.705 4.052,9.171 4.309,9.414C4.478,9.574 4.663,9.718 4.857,9.847C5.263,10.091 5.84,10.151 6.271,10.295C6.271,10.295 7.945,10.389 8.039,10.342C8.181,10.295 8.935,10.012 8.959,9.989C8.959,9.989 9.524,9.659 9.572,9.611C9.612,9.273 9.855,8.142 9.949,8.244C10.057,8.121 10.201,8.063 10.397,8.103L10.514,8.22C10.609,8.315 10.656,8.362 10.703,8.362C10.75,8.338 10.844,8.173 10.939,7.961C10.962,7.867 11.01,7.796 11.01,7.796C11.01,7.773 11.033,7.702 11.057,7.631L11.081,7.541L11.151,7.348C11.222,7.183 11.222,7.089 11.245,6.735C11.269,6.5 11.269,6.028 11.269,5.698L11.245,5.109L11.316,5.109C11.465,5.109 11.497,5.29 11.575,5.368C11.705,5.541 11.646,5.568 11.764,5.745C11.805,5.869 11.828,6.097 11.858,6.217C11.952,6.476 12.023,6.83 12.047,7.183L12.087,7.443L12.117,7.655L12.149,7.662L12.188,7.631L12.235,7.49L12.283,7.254C12.283,7.065 12.3,6.877 12.306,6.688C12.309,6.593 12.3,6.497 12.312,6.402C12.316,6.369 12.323,6.326 12.353,6.311L12.377,6.287L12.448,6.311C12.558,6.366 12.589,6.971 12.589,7.113C12.636,7.395 12.683,8.716 12.636,8.786C12.636,8.833 12.613,8.857 12.613,8.904L12.589,8.951L12.589,8.881L12.589,8.81L12.542,8.975C12.518,9.046 12.495,9.211 12.471,9.305C12.471,9.376 12.448,9.47 12.424,9.493L12.4,9.541L12.4,9.517C12.4,9.517 12.4,9.493 12.424,9.493C12.448,9.47 12.448,9.446 12.448,9.423L12.448,9.376L12.4,9.446C12.342,9.562 12.398,9.732 12.306,9.824C12.306,9.871 12.283,9.918 12.283,9.918C12.283,9.941 12.259,9.965 12.235,10.012C12.226,10.021 12.165,10.149 12.165,10.177C12.13,10.212 12.053,10.371 12.047,10.389C12,10.436 11.952,10.507 11.952,10.507C11.952,10.531 11.905,10.601 11.882,10.649C11.825,10.705 11.753,10.812 11.717,10.884C11.67,10.931 11.622,10.979 11.622,10.979C11.622,11.002 11.457,11.191 11.245,11.403C11.165,11.474 11.068,11.527 11,11.608C10.843,11.793 11.123,11.988 11.222,12.087C11.333,12.142 11.717,12.44 11.717,12.44C11.717,12.44 12.181,12.763 12.306,12.888L12.707,13.265L12.66,13.289C12.636,13.312 12.424,13.242 12.424,13.242L12.33,13.195C12.33,13.195 11.622,12.935 11.434,12.888L11.222,12.794C11.127,12.747 11.01,12.723 10.962,12.723L10.868,12.723L10.844,12.747L10.844,12.794L10.962,12.865C11.269,13.077 11.811,13.501 11.811,13.501L11.929,13.572L12.188,13.784L12.353,13.925C12.402,13.966 12.456,14.006 12.518,14.02C12.545,14.026 12.576,14.003 12.592,13.98C12.781,13.695 12.72,13.663 12.872,13.36C12.872,13.312 13.273,12.417 13.296,12.299C13.296,12.299 13.39,11.945 13.414,11.898C13.438,11.874 14.239,8.975 14.263,8.833C14.263,8.668 14.522,5.745 14.498,5.698C13.475,6.451 11.702,4.449 12.565,3.694C12.495,3.647 9.706,2.477 9.706,2.477C9.675,2.477 8.652,3.218 7.928,3.216C6.968,3.213 6.248,2.468 6.248,2.468C6.224,2.468 2.994,3.671 2.971,3.671C3.132,5.226 2.482,5.882 0.967,5.58L0.967,5.627C0.943,5.722 0.943,7.113 0.967,7.113L1.014,7.49L1.061,7.961C1.085,8.527 1.273,9.564 1.556,10.672C1.721,11.309 1.957,12.016 2.099,12.37C2.099,12.393 2.146,12.511 2.193,12.629C2.312,12.964 2.549,13.452 2.698,13.774C2.73,13.841 2.78,14.018 2.888,14.023C3.048,14.032 3.14,13.862 3.241,13.776" style="fill:rgb(1,207,255);fill-rule:nonzero;"/>
</svg>
