<?xml version="1.0" encoding="UTF-8" standalone="no"?>
<!DOCTYPE svg PUBLIC "-//W3C//DTD SVG 1.1//EN" "http://www.w3.org/Graphics/SVG/1.1/DTD/svg11.dtd">
<svg width="100%" height="100%" viewBox="0 0 22 21" version="1.1" xmlns="http://www.w3.org/2000/svg" xmlns:xlink="http://www.w3.org/1999/xlink" xml:space="preserve" xmlns:serif="http://www.serif.com/" style="fill-rule:evenodd;clip-rule:evenodd;stroke-linejoin:round;stroke-miterlimit:1.41421;">
    <circle cx="10.623" cy="10.518" r="9.817" style="fill:white;"/>
    <path d="M11.658,18.501c0.087,-0.173 0.087,-0.432 0,-1.124c-0.086,-0.952 -0.173,-2.683 -0.346,-5.538c-0.087,-0.952 -0.087,-1.903 -0.173,-1.99c0,-0.259 -0.26,-0.433 -0.519,-0.259c-0.173,0.086 -0.173,0.173 -0.346,2.163c-0.087,0.432 -0.173,1.817 -0.346,3.114c-0.346,3.548 -0.346,3.548 -0.087,3.721c0.087,0.086 0.346,0.086 0.952,0.086c0.692,0 0.779,0 0.865,-0.173Z" style="fill:rgb(248,176,42);"/>
    <path d="M6.467,16.165c0,-0.086 0.432,-1.038 0.865,-1.99c0.519,-0.952 1.038,-2.163 1.298,-2.682c0.952,-2.077 0.952,-2.163 0.692,-2.336c-0.26,-0.173 -0.433,0 -0.952,0.779c-0.346,0.432 -1.298,1.73 -2.163,2.941c-1.211,1.558 -1.644,2.25 -1.644,2.336c0.087,0.26 1.385,1.212 1.644,1.212c0.087,0 0.173,-0.173 0.26,-0.26Z" style="fill:rgb(248,176,42);"/>
    <path d="M16.071,15.819c0.692,-0.432 0.951,-0.692 0.951,-0.865c0,0 -0.951,-1.211 -2.076,-2.682c-1.211,-1.385 -2.25,-2.682 -2.336,-2.856c-0.173,-0.259 -0.433,-0.346 -0.606,-0.173c-0.173,0.26 -0.346,0 2.25,5.019c0.519,0.951 0.951,1.73 0.951,1.817c0.174,0.173 0.347,0.086 0.866,-0.26Z" style="fill:rgb(248,176,42);"/>
    <path d="M17.282,5.004c0.175,0.089 0.26,0.174 0.26,0.259c0.086,0.173 -0.087,0.866 -0.173,0.952c-0.087,0.087 -3.202,0.087 -6.922,0.087c-6.403,0 -6.749,0 -6.836,-0.173c-0.259,-0.173 -0.259,-0.779 0,-0.952c0.087,-0.087 1.297,-0.173 6.836,-0.173l6.835,0Z" style="fill:rgb(248,176,42);"/>
    <path d="M11.658,18.501c0.087,-0.173 0.087,-0.432 0,-1.124c-0.086,-0.952 -0.173,-2.683 -0.346,-5.538c-0.087,-0.952 -0.087,-1.903 -0.173,-1.99c0,-0.259 -0.26,-0.433 -0.519,-0.259c-0.173,0.086 -0.173,0.173 -0.346,2.163c-0.087,0.432 -0.173,1.817 -0.346,3.114c-0.346,3.548 -0.346,3.548 -0.087,3.721c0.087,0.086 0.346,0.086 0.952,0.086c0.692,0 0.779,0 0.865,-0.173Z" style="fill:rgb(248,176,42);"/>
    <path d="M6.467,16.165c0,-0.086 0.432,-1.038 0.865,-1.99c0.519,-0.952 1.038,-2.163 1.298,-2.682c0.952,-2.077 0.952,-2.163 0.692,-2.336c-0.26,-0.173 -0.433,0 -0.952,0.779c-0.346,0.432 -1.298,1.73 -2.163,2.941c-1.211,1.558 -1.644,2.25 -1.644,2.336c0.087,0.26 1.385,1.212 1.644,1.212c0.087,0 0.173,-0.173 0.26,-0.26Z" style="fill:rgb(248,176,42);"/>
    <path d="M16.071,15.819c0.692,-0.432 0.951,-0.692 0.951,-0.865c0,0 -0.951,-1.211 -2.076,-2.682c-1.211,-1.385 -2.25,-2.682 -2.336,-2.856c-0.173,-0.259 -0.433,-0.346 -0.606,-0.173c-0.173,0.26 -0.346,0 2.25,5.019c0.519,0.951 0.951,1.73 0.951,1.817c0.174,0.173 0.347,0.086 0.866,-0.26Z" style="fill:rgb(248,176,42);"/>
    <path d="M17.282,5.004l-6.835,0c-5.539,0 -6.749,0.086 -6.836,0.173c-0.259,0.173 -0.259,0.779 0,0.952c0.087,0.173 0.433,0.173 6.836,0.173c3.72,0 6.835,0 6.922,-0.087c0.086,-0.086 0.259,-0.779 0.173,-0.952c0,-0.085 -0.085,-0.17 -0.26,-0.259Z" style="fill:rgb(248,176,42);"/>
</svg>
